<svg viewBox="0 0 25 24" xmlns="http://www.w3.org/2000/svg">
  <g clip-path="url(#clip0)">
    <path d="M12.7732 5.78075C9.43057 5.78075 6.76694 8.49659 6.76694 11.787C6.76694 15.1296 9.43057 17.7932 12.7732 17.7932C16.0635 17.7932 18.7794 15.1296 18.7794 11.787C18.7794 8.49659 16.0635 5.78075 12.7732 5.78075ZM12.7732 15.7041C10.6318 15.7041 8.85606 13.9806 8.85606 11.787C8.85606 9.6456 10.5796 7.92209 12.7732 7.92209C14.9145 7.92209 16.638 9.6456 16.638 11.787C16.638 13.9806 14.9145 15.7041 12.7732 15.7041ZM20.3984 5.57184C20.3984 4.78842 19.7717 4.16168 18.9883 4.16168C18.2049 4.16168 17.5781 4.78842 17.5781 5.57184C17.5781 6.35526 18.2049 6.982 18.9883 6.982C19.7717 6.982 20.3984 6.35526 20.3984 5.57184ZM24.3678 6.982C24.2633 5.10179 23.8455 3.43049 22.4876 2.07256C21.1296 0.714632 19.4583 0.296812 17.5781 0.192356C15.6457 0.0878996 9.84843 0.0878996 7.91599 0.192356C6.03575 0.296812 4.41668 0.714632 3.00652 2.07256C1.6486 3.43049 1.23077 5.10179 1.12632 6.982C1.02186 8.91445 1.02186 14.7117 1.12632 16.6441C1.23077 18.5244 1.6486 20.1435 3.00652 21.5536C4.41668 22.9115 6.03575 23.3293 7.91599 23.4338C9.84843 23.5383 15.6457 23.5383 17.5781 23.4338C19.4583 23.3293 21.1296 22.9115 22.4876 21.5536C23.8455 20.1435 24.2633 18.5244 24.3678 16.6441C24.4722 14.7117 24.4722 8.91445 24.3678 6.982ZM21.8609 18.6811C21.4952 19.7256 20.6596 20.509 19.6673 20.9269C18.1004 21.5536 14.4445 21.3969 12.7732 21.3969C11.0496 21.3969 7.39368 21.5536 5.87906 20.9269C4.8345 20.509 4.05108 19.7256 3.63326 18.6811C3.00652 17.1664 3.16321 13.5105 3.16321 11.787C3.16321 10.1157 3.00652 6.45972 3.63326 4.89287C4.05108 3.90054 4.8345 3.11713 5.87906 2.6993C7.39368 2.07256 11.0496 2.22925 12.7732 2.22925C14.4445 2.22925 18.1004 2.07256 19.6673 2.6993C20.6596 3.0649 21.443 3.90054 21.8609 4.89287C22.4876 6.45972 22.3309 10.1157 22.3309 11.787C22.3309 13.5105 22.4876 17.1664 21.8609 18.6811Z"></path>
  </g>
  <defs>
    <clipPath id="clip0">
      <rect width="24.6296" height="23.9259" fill="white" transform="translate(0.370361)"></rect>
    </clipPath>
  </defs>
</svg>
