<svg viewBox="0 0 28 40" xmlns="http://www.w3.org/2000/svg">
  <path d="M15.5993 4.22562C15.5593 4.11362 15.6113 3.98963 15.7193 3.94563C15.8273 3.90563 15.9513 3.95763 15.9913 4.06962C17.0552 6.8375 15.9393 7.69746 14.8953 8.50142C13.9594 9.22139 13.012 9.37212 14.364 11.788C14.424 11.892 14.388 12.024 14.288 12.08C14.184 12.14 14.056 12.104 14 12C12.4641 9.25612 13.5514 8.9934 14.6393 8.15744C15.5593 7.44947 16.5473 6.68951 15.5993 4.22562ZM17.1432 19.6569L17.9072 21.2928L16.0473 23.4967L14.9073 22.1448C14.3714 21.5568 13.8994 21.5688 13.4034 22.1608L12.2994 23.4687L10.4675 21.2928L13.5194 14.7171L10.7555 8.68941C10.6155 8.38543 10.7595 8.02944 11.0715 7.89745C11.3835 7.76146 11.7555 7.90145 11.8915 8.20144L14.2234 13.2852L16.6152 8.07344C16.7552 7.76946 17.1232 7.62946 17.4352 7.76546C17.7512 7.90145 17.8912 8.25743 17.7552 8.55742L14.9033 14.7691L17.1432 19.6569ZM10.5595 35.4762C10.4715 35.0962 10.5875 34.2403 11.6835 33.9803L11.6875 34.2763C11.7195 34.9042 11.8555 35.5562 12.1994 35.9442C12.8194 36.6481 15.0993 36.2122 14.3154 34.2283C14.1874 33.9043 14.0114 33.5443 13.8274 33.1643C15.5473 33.7123 15.8113 34.7522 15.7473 36.0482C15.7793 35.5282 16.2233 34.9202 16.8112 34.7642C16.7312 35.1282 16.4033 35.6642 16.4353 36.0562C18.1432 35.2362 18.8391 32.6683 18.2312 30.8804C18.1392 30.9484 18.0512 31.0684 17.9472 31.1564C16.1673 32.6323 12.6514 32.5763 10.6515 31.7164C10.4035 31.6124 10.1875 31.4764 9.99155 31.3444C9.77156 31.2044 9.61157 31.0364 9.45957 30.8684C8.53961 32.3563 9.90355 35.2202 10.5595 35.4762ZM13.8234 29.4445L14.8113 29.4405C15.6033 28.5605 16.5993 27.2806 17.6072 26.9806C18.4272 26.6446 17.7312 25.9686 16.9232 26.4326C16.0113 26.9446 14.2554 28.6325 13.8234 29.4445ZM12.8674 36.6002C12.7314 36.6721 12.8234 36.7921 12.8354 36.8881C12.1435 37.0001 11.4315 37.1561 10.7395 37.2881C10.3515 37.3761 9.88355 37.3441 9.91955 37.8161C9.96355 37.9961 10.0595 38.0801 10.2395 38.1121C10.4155 38.1121 10.5875 38.0321 10.7675 37.9961L13.4794 37.2161C13.4034 37.8521 13.1674 38.6281 13.7114 38.6321C14.0394 38.6321 14.0874 38.3601 14.0474 38.0441C14.0074 37.7681 13.9714 37.4841 13.9434 37.2121L17.0832 38.1041C17.4832 38.2041 17.6912 37.6041 17.2952 37.4201C17.0712 37.3161 15.0393 36.9721 14.5913 36.8881C14.5993 36.8081 14.6753 36.7041 14.5833 36.6202C14.5033 36.5442 14.3994 36.6002 14.2874 36.5882C14.2194 36.6362 13.9634 36.6721 13.8874 36.6761C13.7594 36.4482 13.6554 36.5122 13.5354 36.6801C13.3994 36.6521 12.9634 36.5442 12.8674 36.6002ZM9.51557 29.6885C9.39558 30.4004 10.0395 30.8764 10.4395 31.1204C12.1115 32.1484 16.8952 32.2883 18.0232 30.4204C18.7112 29.2805 17.2312 28.4605 16.3913 28.1965C16.2873 28.2885 16.1513 28.3965 16.0753 28.5165L16.4593 28.6685C17.9632 29.2965 17.1912 30.1204 16.2393 30.3604C14.7313 30.7844 13.0754 30.8724 11.5675 30.4004C10.4715 30.0604 10.1995 29.5965 10.4875 29.1885C10.9995 28.4605 13.1914 28.2365 14.2114 28.2565C14.4273 28.2645 14.6553 28.0325 14.7633 27.8525C13.4514 27.6926 9.79556 27.9885 9.51557 29.6885ZM0.619972 38.7961H2.35589L8.24763 26.0886L9.89955 22.5248L11.8515 24.8407C12.0675 25.0967 12.4594 25.1367 12.7274 24.9287C12.9434 24.7567 13.8954 23.4807 14.1634 23.1648C14.4833 23.5487 15.3273 24.6727 15.6473 24.9287C15.7673 25.0207 15.9113 25.0647 16.0513 25.0607C16.1793 25.0647 16.2993 25.0287 16.3993 24.9527C16.4473 24.9207 16.4873 24.8847 16.5233 24.8407L18.4752 22.5248L20.1271 26.0886L26.0148 38.7961H26.9748C27.3188 38.7961 27.5988 39.068 27.5988 39.396C27.5988 39.728 27.3188 40 26.9748 40H0.619972C0.279987 40 0 39.728 0 39.396C0 39.068 0.279987 38.7961 0.619972 38.7961ZM14.3234 0.305794C14.2714 0.201799 14.3154 0.0738048 14.4193 0.0218071C14.5273 -0.0301905 14.6513 0.0138075 14.7033 0.121803C15.9833 2.81768 14.9353 3.74564 13.9554 4.6096C13.0834 5.38156 12.0716 5.81256 13.6116 8.14446C13.6756 8.24445 13.6516 8.37645 13.5556 8.44444C13.4596 8.51244 13.3276 8.48444 13.2636 8.38845C11.5116 5.74057 12.6634 5.18557 13.6834 4.28561C14.5433 3.52565 15.4633 2.70969 14.3234 0.305794Z"/>
</svg>
