<svg viewBox="0 0 28 40" xmlns="http://www.w3.org/2000/svg">
  <path fill-rule="evenodd" clip-rule="evenodd" d="M16.524 1.89336C16.644 2.07571 16.74 2.27427 16.808 2.48903C16.892 2.59439 17.024 2.5255 17.044 2.40799C17.064 2.27427 17.364 2.23375 17.392 2.37962C17.424 2.52145 17.54 2.50929 17.528 2.22159C17.516 1.93389 17.796 1.96225 17.908 2.02303C18.02 2.07976 18.236 1.86905 18.384 1.99467C18.532 2.12434 18.552 2.18512 18.74 2.06761C18.928 1.95415 19 2.34316 19 2.34316C19 2.34316 19.228 2.33505 19.308 2.48498C19.388 2.63086 19.276 2.54576 19.52 2.56602C19.768 2.59034 20.608 2.47282 20.58 2.7038C20.552 2.93882 20.448 3.93566 20.368 4.04912C20.288 4.16663 19.788 4.06938 19.66 4.02075C19.528 3.97618 19.472 4.21526 19.572 4.72583C19.672 5.23235 20.008 6.04684 20.14 7.01126C20.224 7.60693 20.224 7.91489 20.22 8.2026L20.38 8.24312C20.384 8.24312 23.224 6.83296 24.496 6.57768L24.664 6.51284C24.688 6.50068 24.72 6.48853 24.748 6.48042C24.788 6.46827 24.82 6.46422 24.844 6.45611L25.2 6.3386C25.232 6.33049 25.256 6.31834 25.288 6.30618C25.408 6.26566 25.448 6.26566 25.576 6.2535C25.8 6.23324 26.192 6.25755 26.42 6.29402L26.672 6.3386C26.756 6.35481 26.844 6.36696 26.928 6.38317C27.112 6.41964 27.352 6.47637 27.524 6.54526C27.544 6.55336 27.56 6.55742 27.572 6.57362C27.588 6.59388 27.596 6.61415 27.6 6.63441V6.65467C27.604 6.68303 27.596 6.7114 27.576 6.73571C27.56 6.76002 27.552 6.77218 27.528 6.78839C27.42 6.87348 27.104 6.85728 26.976 6.82891C26.904 6.8127 26.852 6.78028 26.776 6.77623C26.728 6.77623 26.688 6.79649 26.636 6.78839C26.624 6.78839 26.612 6.78434 26.604 6.78028C26.58 6.77623 26.556 6.77623 26.532 6.77218C26.504 6.77218 26.484 6.77218 26.456 6.76813L26.3 6.76408C26.248 6.76813 26.2 6.76002 26.148 6.76002C26.12 6.76002 26.064 6.74381 26.052 6.76813C26.04 6.80055 26.116 6.86943 26.14 6.88969C26.164 6.90995 26.184 6.92616 26.204 6.94642L26.432 7.14498C26.456 7.17335 26.492 7.21792 26.496 7.26249C26.5 7.31112 26.392 7.4651 26.332 7.46915L26.304 7.47321C26.256 7.47726 26.172 7.41242 26.132 7.38406C26.108 7.3638 25.98 7.25844 25.96 7.23413L25.904 7.18145C25.896 7.16929 25.888 7.16119 25.88 7.15308C25.852 7.12472 25.852 7.10041 25.82 7.10446C25.796 7.10446 25.792 7.12067 25.804 7.13688C25.808 7.14498 25.812 7.14903 25.816 7.15308C25.824 7.16524 25.832 7.17335 25.84 7.1855L25.928 7.26655C25.936 7.27465 25.944 7.28275 25.952 7.29086L26.128 7.44484C26.176 7.50157 26.26 7.56641 26.196 7.6434C26.16 7.68797 26.096 7.76091 26.036 7.76901C25.972 7.77307 25.884 7.70013 25.836 7.65961C25.804 7.63124 25.624 7.49347 25.6 7.49752C25.596 7.49752 25.596 7.49752 25.588 7.50157C25.592 7.52183 25.608 7.52994 25.62 7.54209C25.64 7.56641 25.724 7.63529 25.752 7.65961C25.76 7.66366 25.764 7.66771 25.772 7.67176C25.812 7.70418 25.852 7.7366 25.888 7.77307C25.94 7.8298 25.972 7.85816 25.92 7.9311C25.912 7.93921 25.912 7.94326 25.904 7.95136C25.896 7.95947 25.896 7.96352 25.888 7.97162C25.88 7.97568 25.876 7.98378 25.872 7.98783C25.84 8.0162 25.792 8.07698 25.748 8.08103C25.708 8.08508 25.704 8.07293 25.668 8.06482C25.62 8.05672 25.564 8.06888 25.52 8.06077C25.496 8.05672 25.48 8.04861 25.46 8.03646C25.424 8.0162 25.4 7.99188 25.368 7.96757C25.284 7.89058 25.292 7.89058 25.192 7.9311C25.08 7.97162 24.96 7.98378 24.84 7.99594C24.812 7.99594 24.78 7.99594 24.752 7.99594C24.692 7.99594 24.632 7.99188 24.58 7.98378C24.552 7.98378 24.524 7.97568 24.496 7.97568C24.472 7.97162 24.24 7.99594 24.212 7.99188C23.672 7.90679 22.008 9.44662 20.852 10.2854C20.348 10.6461 20.116 10.6217 19.836 10.5691L18.888 10.3948L18.852 10.7717L18.172 10.7595L18.16 10.6217C18.16 10.6217 17.176 10.4597 16.66 10.5123L15.336 16.6595L20.512 20.3308C21.828 21.2628 21.784 21.595 21.536 22.7296L20.14 29.6751L21.184 29.7156C22.756 29.7764 22.424 31.9929 21.536 31.9564L18.276 31.8349C17.576 31.8065 16.928 31.223 16.808 30.522C16.74 30.2545 16.756 29.9506 16.82 29.6751L18.36 22.7458L13.86 20.2862L13.976 26.1132C13.976 26.2874 13.964 26.4536 13.904 26.6076C13.896 26.6319 13.892 26.6562 13.884 26.6805L10.8 36.0978H11.924C13.032 36.0978 13.32 37.5241 12.744 38.1887H14.172V35.0158C14.172 33.3787 15.492 32.0415 17.108 32.0415H20.452C22.068 32.0415 23.392 33.3787 23.392 35.0158V39.0923C23.392 39.5907 22.988 40 22.496 40H15.064H4.872C4.38 40 3.976 39.5907 3.976 39.0923C3.976 38.5939 4.38 38.1887 4.872 38.1887H7.592C7.3 37.9374 7.108 37.5687 7.092 37.1594C7.056 36.8677 7.116 36.5394 7.22 36.2355L10.692 26.2591C9.716 21.4492 9.232 19.3582 9.188 17.7009L8.424 18.1061C8.148 18.5924 7.832 18.9328 7.44 19.1313C6.092 19.8121 4.9 19.3785 3.5 18.7099C2.1 18.0372 1.512 17.324 1.544 16.311C1.572 15.298 1.996 15.067 2.048 14.6334C2.096 14.1998 2.132 13.4988 2.132 13.4988C2.132 13.4988 1.472 14.2201 0.888 14.3538C0.304 14.4835 0 14.0985 0 14.0985C0 14.0985 1.124 13.8432 1.652 13.3772C2.18 12.9153 2.164 12.891 2.164 12.891C2.164 12.891 2.004 12.0238 2.48 10.2854C2.96 8.55108 3.636 8.91173 4.02 8.37684C4.404 7.84195 4.472 7.72444 4.472 7.72444C4.472 7.72444 4.26 7.7447 3.932 7.68392C3.6 7.61908 3.584 7.61098 3.584 7.61098C3.584 7.61098 3.924 6.99505 3.584 6.85728C3.244 6.71545 3.024 6.45611 3.024 6.45611C3.024 6.45611 3.676 6.02253 3.436 5.06622C3.196 4.11395 4 1.50841 7.352 1.57729C10.704 1.64213 11.164 2.66328 11.524 3.79383C11.856 4.83119 12.216 5.07837 12.06 5.83208C12.228 5.75508 12.42 5.73482 12.608 5.78345C12.728 5.78345 12.844 5.75103 12.888 5.55653C12.936 5.33366 12.952 5.2283 12.944 5.14726C12.54 4.81093 12.248 4.34898 12.12 3.81815C11.984 3.64795 11.872 3.4575 11.816 3.20222C11.712 2.72406 11.712 2.72406 11.712 2.72406C11.712 2.72406 11.544 1.80422 12.372 0.965416C13.2 0.126616 13.904 -0.0800446 14.356 0.0253119C14.808 0.126616 15.944 0.876268 16.104 0.864112L18.016 0.702025C18.016 0.702025 17.976 1.32606 17.424 1.57324C16.984 1.76775 16.648 1.86095 16.524 1.89336ZM16.568 6.79649C16.824 6.86943 17.032 7.04368 17.148 7.26655L18.204 7.76496C18.252 7.61503 18.376 7.18955 18.436 6.68708C18.496 6.18462 18.416 5.06216 18.416 4.72583C18.416 4.38545 18.344 4.14232 18.036 4.08559C17.788 4.03696 17.652 3.66416 17.612 3.52639C17.256 4.21121 16.992 5.127 17.04 5.75914C17.092 6.39938 17.084 6.31023 16.744 6.65062C16.684 6.71545 16.624 6.76408 16.568 6.79649ZM16.916 3.42103C16.908 3.52234 16.892 3.62364 16.876 3.72495C16.872 3.729 16.872 3.729 16.872 3.73305C16.72 4.50296 16.212 5.14321 15.532 5.46738C15.524 5.47548 15.52 5.47954 15.508 5.48359C15.508 5.48764 15.432 5.77129 15.484 6.09142C15.808 6.19272 16.124 6.46422 16.468 6.39128C16.876 6.29808 16.744 6.07115 16.856 5.23641C16.968 4.43002 17.136 3.96808 17.48 3.39267C17.44 3.37646 17.4 3.37646 17.38 3.42914C17.336 3.55475 17.168 3.57907 17.076 3.56286C17.032 3.55475 16.972 3.48182 16.916 3.42103Z"/>
</svg>
