<svg viewBox="0 0 28 40" xmlns="http://www.w3.org/2000/svg">
  <path fill-rule="evenodd" clip-rule="evenodd" d="M12.4961 8.052H14.9881L15.0801 9.168H12.4001L12.4961 8.052ZM3.49213 36.784C3.43613 36.792 3.37213 36.804 3.31213 36.824H3.30813H3.30013L3.29613 36.828H3.29213L3.28413 36.832H3.28013L3.27213 36.836H3.26813L3.26413 36.84H3.26013H3.25613V36.844H3.25213H3.24813L3.24013 36.848H3.23613V36.852H3.22813V36.856H3.22413H3.22013V36.86H3.21213L3.20813 36.864H3.20013V36.868H3.19613L3.19213 36.872H3.18813L3.18413 36.876H3.18013L3.17613 36.88H3.17213L3.16813 36.884H3.16413L3.16013 36.888H3.15613H3.15213C3.06813 36.936 2.98813 36.996 2.90413 37.072L2.88413 37.092C1.92413 38.04 1.42813 37.56 1.01213 37.156L0.996126 37.14C0.844126 36.992 0.732126 36.912 0.624126 36.872C0.516126 36.836 0.392126 36.832 0.216126 36.84C0.100126 36.844 0.0041257 36.752 0.000125696 36.64C-0.0038743 36.528 0.0881257 36.432 0.200126 36.428C0.428126 36.42 0.596126 36.424 0.764126 36.484C0.936126 36.544 1.08813 36.652 1.29213 36.848L1.30413 36.86C1.58813 37.136 1.92013 37.46 2.58813 36.8C2.59213 36.8 2.61213 36.78 2.61613 36.776C2.76413 36.632 2.92013 36.532 3.07613 36.468H3.08013L3.08413 36.464H3.09213V36.46H3.09613L3.11213 36.452H3.12013V36.448H3.12413L3.13213 36.444H3.13613H3.14013L3.16013 36.436H3.16413L3.16813 36.432H3.17613V36.428H3.18413L3.19213 36.424H3.19613L3.20413 36.42H3.21213L3.21613 36.416H3.22013H3.22413L3.23213 36.412H3.24013L3.24413 36.408H3.25213H3.26013V36.404H3.26413H3.27213L3.28013 36.4H3.28813L3.29213 36.396H3.30013H3.30813L3.31213 36.392H3.31613H3.32013H3.32813L3.33613 36.388H3.34013H3.34413L3.35613 36.384H3.36813H3.37213H3.37613L3.38013 36.38H3.38413H3.38813H3.39613H3.40013L3.40813 36.376H3.41213H3.41613H3.42013H3.42413H3.42813H3.43213H3.44013L3.44813 36.372H3.45213L3.49213 36.368V36.372H3.50813C3.95213 36.364 4.16013 36.576 4.38413 36.8C4.52013 36.94 4.66813 37.088 4.90013 37.148L4.93213 37.156C4.95613 37.16 4.97613 37.164 4.99613 37.168C5.06813 37.188 5.18412 37.24 5.17613 37.364C5.16412 37.548 5.04813 37.58 4.85213 37.56C4.83213 37.556 4.81613 37.552 4.80013 37.548C4.45213 37.464 4.26413 37.272 4.08413 37.088C3.92813 36.928 3.78013 36.78 3.51213 36.784H3.49213ZM9.94413 8.052H10.6521L10.9441 4.636H10.2241C10.0281 4.636 9.61213 4.604 10.0281 4.216L11.6241 2.728L13.2241 1.22C13.2801 1.168 13.3481 1.128 13.4241 1.1C13.2201 1.008 13.0761 0.852 13.0761 0.576C13.0761 0.3 13.3401 0 13.6601 0C13.9841 0 14.2441 0.3 14.2441 0.576C14.2441 0.852 14.1001 1.008 13.8961 1.1C13.9721 1.128 14.0401 1.168 14.0961 1.22L15.6961 2.728L17.2921 4.216C17.7081 4.604 17.2921 4.636 17.0961 4.636H16.3681L16.6601 8.052H17.3761C17.5241 8.052 17.6441 8.168 17.6441 8.316V8.904C17.6441 9.048 17.5241 9.168 17.3761 9.168H15.5361L15.4441 8.052H16.2041L15.9121 4.636H13.6881H13.6321H11.4001L11.1081 8.052H12.0401L11.9441 9.168H9.94413C9.79613 9.168 9.67613 9.048 9.67613 8.904V8.316C9.67613 8.168 9.79613 8.052 9.94413 8.052ZM7.61212 32.464L7.60012 32.448C7.31612 32.176 6.98413 31.852 6.31612 32.508C6.31213 32.512 6.29213 32.532 6.28813 32.536C5.93213 32.876 5.54413 32.976 5.18813 32.936C4.83613 32.896 4.52413 32.72 4.31213 32.508C4.30813 32.504 4.29613 32.492 4.29213 32.488C4.19213 32.384 4.07613 32.304 3.96413 32.248C3.84413 32.188 3.73213 32.156 3.64413 32.156C3.37613 32.144 3.22813 32.292 3.06813 32.448C2.88413 32.628 2.68813 32.816 2.34013 32.892C1.67613 33.044 1.41613 32.816 1.00013 32.452L0.848126 32.324C0.504126 32.032 0.320126 32.164 0.320126 32.164C0.224126 32.228 0.0961257 32.196 0.0321257 32.104C-0.0278743 32.008 0.000125694 31.88 0.0961257 31.816C0.0961257 31.816 0.536126 31.512 1.12013 32.008L1.27613 32.144C1.59613 32.42 1.79213 32.592 2.24813 32.492C2.48013 32.44 2.63213 32.292 2.77213 32.156C3.00013 31.936 3.21213 31.728 3.65613 31.74C3.80413 31.748 3.98013 31.792 4.15213 31.88C4.30413 31.956 4.45613 32.064 4.59212 32.204L4.60813 32.216C4.76413 32.372 4.98813 32.496 5.23213 32.524C5.47613 32.552 5.74412 32.48 6.00012 32.236L6.02012 32.216C6.71212 31.532 7.16412 31.592 7.51613 31.832C7.62413 31.904 7.69613 31.976 7.77212 32.056L8.66813 24.736H18.5761L19.7961 34.724L19.9081 35.932H15.0921V32.876C15.0921 32.068 14.4241 31.408 13.6041 31.408C12.7881 31.408 12.1201 32.068 12.1201 32.876V35.932H7.30013L7.72012 32.516C7.68012 32.512 7.64412 32.496 7.61212 32.464ZM27.3361 32.128L27.3201 32.144C27.0001 32.42 26.8041 32.592 26.3481 32.492C26.1161 32.44 25.9641 32.292 25.8241 32.156C25.5961 31.936 25.3841 31.728 24.9401 31.74C24.7921 31.748 24.6161 31.792 24.4441 31.88C24.2921 31.956 24.1401 32.064 24.0041 32.204L23.9881 32.216C23.8321 32.372 23.6081 32.496 23.3641 32.524C23.1201 32.552 22.8521 32.48 22.5961 32.236L22.5761 32.216C21.6161 31.272 21.1201 31.752 20.7041 32.156L20.6881 32.168C20.5321 32.32 20.4241 32.4 20.3161 32.44C20.2081 32.476 20.0841 32.48 19.9081 32.472C19.7921 32.468 19.6961 32.556 19.6921 32.672C19.6881 32.784 19.7761 32.88 19.8921 32.884C20.1201 32.892 20.2841 32.888 20.4561 32.828C20.6241 32.768 20.7801 32.66 20.9841 32.464L20.9961 32.448C21.2801 32.176 21.6121 31.852 22.2801 32.508C22.2841 32.512 22.3041 32.532 22.3081 32.536C22.6641 32.876 23.0521 32.976 23.4081 32.936C23.7601 32.896 24.0681 32.72 24.2841 32.508C24.2881 32.504 24.3001 32.492 24.3041 32.488C24.4041 32.384 24.5201 32.304 24.6321 32.248C24.7521 32.188 24.8641 32.156 24.9521 32.156C25.2161 32.144 25.3681 32.292 25.5281 32.448C25.7121 32.628 25.9041 32.816 26.2561 32.892C26.7681 33.008 27.0401 32.9 27.3321 32.676C27.4241 32.608 27.5401 32.48 27.5721 32.408C27.6761 32.188 27.4681 31.996 27.3361 32.128ZM25.9161 36.784C25.8601 36.792 25.7961 36.804 25.7361 36.824H25.7321H25.7241L25.7201 36.828H25.7161L25.7081 36.832H25.7041L25.7001 36.836H25.6921L25.6881 36.84H25.6841H25.6801V36.844H25.6761H25.6721L25.6641 36.848H25.6601V36.852H25.6561L25.6521 36.856H25.6481H25.6441V36.86H25.6361L25.6321 36.864H25.6241V36.868H25.6201L25.6161 36.872H25.6121L25.6081 36.876H25.6041L25.6001 36.88H25.5961L25.5921 36.884H25.5881L25.5841 36.888H25.5801H25.5761C25.4921 36.936 25.4121 36.996 25.3281 37.072L25.3081 37.092C24.3481 38.04 23.8521 37.56 23.4361 37.156L23.4241 37.14C23.2681 36.992 23.1561 36.912 23.0481 36.872C22.9401 36.836 22.8161 36.832 22.6401 36.84C22.5241 36.844 22.4281 36.752 22.4241 36.64C22.4201 36.528 22.5121 36.432 22.6281 36.428C22.8521 36.42 23.0201 36.424 23.1881 36.484C23.3601 36.544 23.5121 36.652 23.7161 36.848L23.7281 36.86C24.0121 37.136 24.3441 37.46 25.0121 36.8C25.0161 36.8 25.0361 36.78 25.0401 36.776C25.1881 36.632 25.3441 36.532 25.5001 36.468H25.5041L25.5081 36.464H25.5161L25.5201 36.46L25.5361 36.452H25.5441V36.448H25.5481L25.5561 36.444H25.5601H25.5641L25.5841 36.436H25.5881L25.5921 36.432H25.6001V36.428H25.6081L25.6161 36.424H25.6201L25.6281 36.42H25.6361L25.6401 36.416H25.6441H25.6481L25.6561 36.412H25.6641L25.6681 36.408H25.6721H25.6761H25.6841V36.404H25.6921H25.6961H25.7001L25.7041 36.4H25.7121L25.7161 36.396H25.7241H25.7321L25.7401 36.392H25.7441H25.7521L25.7601 36.388H25.7641H25.7681L25.7801 36.384H25.7921H25.7961H25.8001L25.8041 36.38H25.8081H25.8121H25.8201H25.8241L25.8321 36.376H25.8361H25.8401H25.8441H25.8481H25.8521H25.8561H25.8641L25.8721 36.372H25.8761L25.9161 36.368V36.372H25.9321C26.3761 36.364 26.5841 36.576 26.8081 36.8C26.9441 36.94 27.0961 37.088 27.3241 37.148L27.3561 37.156C27.3801 37.16 27.4001 37.164 27.4201 37.168C27.4921 37.188 27.6081 37.24 27.6001 37.364C27.5881 37.548 27.4721 37.58 27.2761 37.56C27.2601 37.556 27.2401 37.552 27.2241 37.548C26.8761 37.464 26.6881 37.272 26.5081 37.088C26.3521 36.928 26.2041 36.78 25.9361 36.784H25.9161ZM3.43213 3.472C3.32013 3.436 3.26413 3.316 3.30413 3.208C3.34013 3.104 3.46013 3.044 3.56813 3.084L8.45213 4.792C8.56013 4.828 8.62013 4.948 8.58013 5.056C8.54013 5.164 8.42013 5.22 8.31213 5.18L3.43213 3.472ZM3.56813 9.516C3.46013 9.556 3.34013 9.5 3.30413 9.392C3.26413 9.284 3.32013 9.164 3.43213 9.128L8.31213 7.42C8.42013 7.38 8.54013 7.436 8.58013 7.544C8.62013 7.652 8.56013 7.772 8.45213 7.808L3.56813 9.516ZM2.14813 6.508C2.03213 6.508 1.93613 6.416 1.93613 6.3C1.93613 6.188 2.03213 6.092 2.14813 6.092H7.22813C7.34412 6.092 7.44012 6.188 7.44012 6.3C7.44012 6.416 7.34412 6.508 7.22813 6.508H2.14813ZM23.7881 3.472C23.8961 3.436 23.9521 3.316 23.9161 3.208C23.8761 3.104 23.7561 3.044 23.6481 3.084L18.7641 4.792C18.6561 4.828 18.6001 4.948 18.6361 5.056C18.6761 5.164 18.7961 5.22 18.9041 5.18L23.7881 3.472ZM23.6481 9.516C23.7561 9.556 23.8761 9.5 23.9161 9.392C23.9521 9.284 23.8961 9.164 23.7881 9.128L18.9041 7.42C18.7961 7.38 18.6761 7.436 18.6361 7.544C18.6001 7.652 18.6561 7.772 18.7641 7.808L23.6481 9.516ZM25.0721 6.508C25.1841 6.508 25.2801 6.416 25.2801 6.3C25.2801 6.188 25.1841 6.092 25.0721 6.092H19.9881C19.8721 6.092 19.7801 6.188 19.7801 6.3C19.7801 6.416 19.8721 6.508 19.9881 6.508H25.0721ZM0.332126 39.36H5.20813L5.47613 36.652C5.49213 36.512 5.61212 36.396 5.75612 36.376H21.5801C21.7241 36.396 21.8441 36.512 21.8561 36.652L22.1281 39.36L27.2761 39.356C27.4521 39.356 27.6001 39.504 27.6001 39.68C27.6001 39.856 27.4521 40 27.2761 40H21.9041H20.8001H19.6961H7.64012H6.46012H5.43213H0.332126C0.152126 40 0.0041257 39.856 0.0041257 39.68C0.0041257 39.504 0.152126 39.36 0.332126 39.36ZM18.5201 24.288H8.72412L9.16413 20.672H18.0801L18.5201 24.288ZM18.0241 20.224H9.22013L9.66013 16.62H17.5841L18.0241 20.224ZM17.1201 12.736H17.1121L17.5281 16.156H9.71613L10.1321 12.736H17.1121H17.1201ZM17.7041 9.58H16.8521H14.4401H12.7921H10.3761H9.52813C9.34413 9.58 8.94413 9.548 8.91213 9.864L8.74413 11.676C8.69213 12.232 9.09613 12.288 9.51613 12.288H9.91613H10.1561H12.7801H14.4281H17.0521H17.6921C18.1161 12.288 18.5121 12.232 18.4681 11.676L18.3161 9.864C18.2881 9.544 17.8841 9.58 17.7041 9.58ZM13.6081 5.216C14.2161 5.216 14.7081 5.7 14.7081 6.3C14.7081 6.9 14.2161 7.384 13.6081 7.384C13.0001 7.384 12.5081 6.9 12.5081 6.3C12.5081 5.7 13.0001 5.216 13.6081 5.216Z"/>
</svg>
