<svg viewBox="0 0 24 25" xmlns="http://www.w3.org/2000/svg">
  <path fill-rule="evenodd" clip-rule="evenodd" d="M6.84346 0H17.0824C20.845 0 23.9259 3.1309 23.9259 6.95458V17.3598C23.9259 21.1835 20.845 24.3144 17.0824 24.3144H6.84346C3.08087 24.3144 0 21.1835 0 17.3598V6.95458C0 3.1309 3.08087 0 6.84346 0ZM8.82309 7.27434C8.82309 7.38092 9.0984 7.28766 9.4917 7.52747C9.72768 7.67402 9.78012 7.78061 9.85878 8.07371C10.0292 8.80648 10.0554 10.5385 9.89811 11.3645C9.84567 11.6043 9.74079 12.0573 9.41304 12.0573C9.17706 12.0573 9.07218 11.9507 8.91486 11.8175C8.80998 11.7375 8.71821 11.6309 8.65266 11.5377L8.23313 10.9914L7.61696 9.99222C7.55141 9.87231 7.48586 9.76573 7.42031 9.64582C7.2761 9.41933 7.15811 9.17952 7.04012 8.9397C7.0139 8.87309 6.98768 8.83312 6.96145 8.76651C6.77791 8.39346 6.62059 8.02042 6.46327 7.63406C6.43705 7.56744 6.41083 7.50083 6.38461 7.43421C6.31906 7.30098 6.25351 7.23437 6.1093 7.16775C6.01753 7.11446 5.82088 7.03452 5.70289 7.03452H2.93666C2.76623 7.03452 2.50403 7.08781 2.39915 7.20772C2.2156 7.44753 2.56958 8.02042 2.67446 8.28688C2.81867 8.65992 3.29063 9.59253 3.46106 9.93893L3.67082 10.3386C3.71015 10.4186 3.73637 10.4718 3.7757 10.5385L4.09035 11.138C4.12968 11.2046 4.16901 11.2579 4.20834 11.3245C4.24767 11.3911 4.27389 11.4577 4.31322 11.5244L4.99494 12.6701C5.0736 12.8034 5.16537 12.9233 5.23092 13.0432L5.9782 14.1357C6.22729 14.4821 6.5026 14.8151 6.77791 15.1482C6.98768 15.388 7.45964 15.8543 7.69562 16.0542C8.12825 16.4405 8.62644 16.7603 9.13773 17.0401C9.46548 17.2133 10.1341 17.4531 10.4618 17.533C10.7372 17.613 11.1829 17.6929 11.5107 17.6929H12.9397C13.1756 17.6929 13.4903 17.5197 13.582 17.3198C13.6607 17.1466 13.6607 16.8669 13.6738 16.6537C13.6869 16.2274 13.8442 15.428 14.2638 15.2015C14.6702 14.975 15.129 15.4546 15.3781 15.7211C15.4043 15.7477 15.4175 15.7744 15.4437 15.801L15.8239 16.2407C15.9288 16.3473 16.0205 16.4805 16.1254 16.5871C16.1647 16.6271 16.1778 16.6404 16.2041 16.6803C16.2827 16.7736 16.44 16.9068 16.5318 17.0134C16.8596 17.3465 17.2791 17.6529 17.7511 17.7462C17.9608 17.7861 18.1181 17.7595 18.3541 17.7595C18.9834 17.7595 19.6127 17.7062 20.242 17.7062C20.4517 17.7062 20.6877 17.7195 20.8713 17.6796C21.0286 17.6529 21.2252 17.5863 21.3432 17.5064C21.4874 17.3998 21.5792 17.2532 21.5792 17.0267C21.5792 16.5871 21.0286 15.9209 20.7533 15.5745C20.5173 15.2948 19.8487 14.562 19.6389 14.4021C19.5471 14.3355 19.4947 14.2556 19.4029 14.1756C19.3636 14.149 19.3374 14.109 19.298 14.069L18.7212 13.4962C18.695 13.4695 18.695 13.4695 18.6688 13.4429C18.2755 12.9366 18.341 12.6835 18.7343 12.0972C18.931 11.7908 19.1669 11.4977 19.3898 11.2046L20.7008 9.36604C20.7664 9.24613 20.8319 9.15287 20.9106 9.03297C20.9761 8.92638 21.0286 8.83312 21.0941 8.71321C21.2646 8.43343 21.5399 7.91384 21.5399 7.56744C21.5399 7.3676 21.553 7.23437 21.3694 7.12778C21.1466 6.99455 20.7795 6.99455 20.5435 7.03452C20.3862 7.04785 18.1312 7.03452 17.8428 7.03452C17.502 7.03452 17.384 6.95458 17.1873 7.15443C17.1087 7.22104 17.0693 7.30098 17.03 7.40757C16.8727 7.80725 16.7022 8.1803 16.5449 8.56666C16.4269 8.84644 16.1647 9.40601 16.0074 9.65915L15.7059 10.1654C15.6666 10.2054 15.6534 10.2454 15.6272 10.2853L15.2077 10.9115C15.1028 11.0714 14.9848 11.2046 14.8537 11.3645C14.7095 11.551 14.4211 11.8574 14.1851 11.9107C13.8574 11.9773 13.7131 11.4711 13.6738 11.2046L13.6476 10.6317C13.6476 10.5385 13.6607 10.5251 13.6607 10.4452C13.6607 10.1787 13.6345 9.85899 13.6738 9.61918L13.6869 8.8198C13.6869 8.73986 13.7 8.71321 13.7 8.63328C13.7131 8.19362 13.7787 7.47418 13.5952 7.08781C13.5165 6.92794 13.3985 6.82135 13.2281 6.74142C12.6381 6.5016 11.5369 6.5549 10.8552 6.5549C10.2652 6.5549 9.34749 6.58154 8.94108 7.04785C8.90175 7.10114 8.82309 7.18107 8.82309 7.27434Z"></path>
</svg>
